<?xml version="1.0" standalone="no"?>
<!DOCTYPE svg PUBLIC "-//W3C//DTD SVG 20010904//EN"
 "http://www.w3.org/TR/2001/REC-SVG-20010904/DTD/svg10.dtd">
<svg version="1.0" xmlns="http://www.w3.org/2000/svg"
 width="337.000000pt" height="337.000000pt" viewBox="0 0 337.000000 337.000000"
 preserveAspectRatio="xMidYMid meet">
<metadata>
Created by potrace 1.11, written by Peter Selinger 2001-2013
</metadata>
<g transform="translate(0.000000,337.000000) scale(0.100000,-0.100000)"
fill="#000000" stroke="none">
<path d="M370 1690 l0 -1310 1310 0 1310 0 0 1310 0 1310 -1310 0 -1310 0 0
-1310z m2600 0 l0 -1290 -1290 0 -1290 0 0 1290 0 1290 1290 0 1290 0 0 -1290z"/>
<path d="M996 2471 c-1 -3 -2 -247 -2 -541 l1 -535 48 -3 47 -3 0 249 c0 299
7 332 79 402 67 65 133 82 227 59 56 -14 100 -57 115 -111 6 -25 11 -149 11
-320 l1 -279 46 3 46 3 -1 300 c0 218 -4 311 -13 339 -32 94 -133 156 -255
156 -84 0 -142 -21 -204 -76 l-52 -46 0 201 c0 111 -3 201 -7 202 -44 4 -85 4
-87 0z"/>
<path d="M1758 2100 c-11 -4 -13 -109 -13 -540 l1 -535 47 -3 47 -3 0 249 c0
299 6 332 80 403 107 104 285 86 335 -34 12 -30 15 -91 15 -327 l0 -291 48 3
47 3 -1 310 c0 278 -2 314 -18 345 -47 90 -135 140 -250 140 -81 0 -138 -20
-198 -70 -25 -22 -49 -40 -52 -40 -3 0 -6 89 -6 198 l0 197 -35 0 c-18 0 -40
-2 -47 -5z"/>
</g>
</svg>
