<?xml version="1.0" standalone="no"?>
<!DOCTYPE svg PUBLIC "-//W3C//DTD SVG 20010904//EN"
 "http://www.w3.org/TR/2001/REC-SVG-20010904/DTD/svg10.dtd">
<svg version="1.0" xmlns="http://www.w3.org/2000/svg"
 width="328.000000pt" height="328.000000pt" viewBox="0 0 328.000000 328.000000"
 preserveAspectRatio="xMidYMid meet">
<metadata>
Created by potrace 1.11, written by Peter Selinger 2001-2013
</metadata>
<g transform="translate(0.000000,328.000000) scale(0.100000,-0.100000)"
fill="#000000" stroke="none">
<path d="M320 1640 l0 -1310 1310 0 1310 0 0 1310 0 1310 -1310 0 -1310 0 0
-1310z m2600 0 l0 -1290 -1290 0 -1290 0 0 1290 0 1290 1290 0 1290 0 0 -1290z"/>
<path d="M1008 2420 c-11 -4 -13 -104 -12 -525 1 -286 2 -528 3 -537 1 -14 10
-18 45 -18 l45 0 3 273 c3 258 4 274 25 313 28 52 91 107 140 122 52 15 135 8
180 -15 25 -13 46 -35 61 -65 23 -44 23 -52 24 -336 l1 -292 46 0 47 0 -2 308
c-1 284 -2 310 -21 352 -39 88 -132 140 -253 140 -78 0 -137 -23 -198 -76
l-52 -46 0 204 0 203 -35 0 c-18 0 -40 -2 -47 -5z"/>
<path d="M1657 2045 c-3 -9 -1 -1048 2 -1067 0 -5 21 -8 45 -8 l44 0 4 273 c3
258 4 274 25 313 48 89 146 143 239 130 66 -9 111 -33 136 -75 22 -35 23 -46
28 -336 l5 -300 45 0 45 0 -1 310 c-1 276 -3 314 -19 345 -45 90 -134 140
-249 140 -84 0 -142 -21 -204 -76 l-52 -46 0 201 c0 153 -3 201 -12 202 -46 5
-78 3 -81 -6z"/>
</g>
</svg>
